HIERARCHY
ROOT hip
{
  OFFSET 0 0 0
  CHANNELS 6 Xposition Yposition Zposition Zrotation Yrotation Xrotation
  JOINT abdomen
  {
    OFFSET 0 20.6881 -0.73152
    CHANNELS 3 Zrotation Xrotation Yrotation
    JOINT chest
    {
      OFFSET 0 11.7043 -0.48768
      CHANNELS 3 Zrotation Xrotation Yrotation
      JOINT neck
      {
        OFFSET 0 22.1894 -2.19456
        CHANNELS 3 Zrotation Xrotation Yrotation
        JOINT head
        {
          OFFSET -0.24384 7.07133 1.2192
          CHANNELS 3 Zrotation Xrotation Yrotation
          JOINT leftEye
          {
            OFFSET 4.14528 8.04674 8.04672
            CHANNELS 3 Zrotation Xrotation Yrotation
            End Site
            {
              OFFSET 1 0 0
            }
          }
          JOINT rightEye
          {
            OFFSET -3.6576 8.04674 8.04672
            CHANNELS 3 Zrotation Xrotation Yrotation
            End Site
            {
              OFFSET 1 0 0
            }
          }
        }
      }
      JOINT rCollar
      {
        OFFSET -2.68224 19.2634 -4.8768
        CHANNELS 3 Zrotation Xrotation Yrotation
        JOINT rShldr
        {
          OFFSET -8.77824 -1.95073 1.46304
          CHANNELS 3 Zrotation Xrotation Yrotation
          JOINT rForeArm
          {
            OFFSET -28.1742 -1.7115 0.48768
            CHANNELS 3 Zrotation Xrotation Yrotation
            JOINT rHand
            {
              OFFSET -22.5879 0.773209 7.07136
              CHANNELS 3 Zrotation Xrotation Yrotation
              JOINT rThumb1
              {
                OFFSET -1.2192 -0.487915 3.41376
                CHANNELS 3 Zrotation Xrotation Yrotation
                JOINT rThumb2
                {
                  OFFSET -3.37035 -0.52449 3.41376
                  CHANNELS 3 Zrotation Xrotation Yrotation
                  End Site
                  {
                    OFFSET -1.78271 -1.18214 1.43049
                  }
                }
              }
              JOINT rIndex1
              {
                OFFSET -7.75947 0.938293 5.60832
                CHANNELS 3 Zrotation Xrotation Yrotation
                JOINT rIndex2
                {
                  OFFSET -2.54057 -0.884171 1.56538
                  CHANNELS 3 Zrotation Xrotation Yrotation
                  End Site
                  {
                    OFFSET -1.62519 -0.234802 1.16502
                  }
                }
              }
              JOINT rMid1
              {
                OFFSET -8.24714 1.18213 3.41376
                CHANNELS 3 Zrotation Xrotation Yrotation
                JOINT rMid2
                {
                  OFFSET -3.10165 -0.590103 1.0647
                  CHANNELS 3 Zrotation Xrotation Yrotation
                  End Site
                  {
                    OFFSET -2.48547 -0.328903 0.83742
                  }
                }
              }
              JOINT rRing1
              {
                OFFSET -8.82822 0.546677 1.51678
                CHANNELS 3 Zrotation Xrotation Yrotation
                JOINT rRing2
                {
                  OFFSET -2.60934 -0.819778 -0.0198488
                  CHANNELS 3 Zrotation Xrotation Yrotation
                  End Site
                  {
                    OFFSET -2.33842 -0.294052 0.168128
                  }
                }
              }
              JOINT rPinky1
              {
                OFFSET -8.27202 -0.0477905 -0.4584
                CHANNELS 3 Zrotation Xrotation Yrotation
                JOINT rPinky2
                {
                  OFFSET -1.82734 -0.647385 -0.700984
                  CHANNELS 3 Zrotation Xrotation Yrotation
                  End Site
                  {
                    OFFSET -1.69225 -0.51767 -0.607171
                  }
                }
              }
            }
          }
        }
      }
      JOINT lCollar
      {
        OFFSET 2.68224 19.2634 -4.8768
        CHANNELS 3 Zrotation Xrotation Yrotation
        JOINT lShldr
        {
          OFFSET 8.77824 -1.95073 1.46304
          CHANNELS 3 Zrotation Xrotation Yrotation
          JOINT lForeArm
          {
            OFFSET 28.1742 -1.7115 0.48768
            CHANNELS 3 Zrotation Xrotation Yrotation
            JOINT lHand
            {
              OFFSET 22.5879 0.773209 7.07136
              CHANNELS 3 Zrotation Xrotation Yrotation
              JOINT lThumb1
              {
                OFFSET 1.2192 -0.487915 3.41376
                CHANNELS 3 Zrotation Xrotation Yrotation
                JOINT lThumb2
                {
                  OFFSET 3.37035 -0.52449 3.41376
                  CHANNELS 3 Zrotation Xrotation Yrotation
                  End Site
                  {
                    OFFSET 1.78271 -1.18214 1.43049
                  }
                }
              }
              JOINT lIndex1
              {
                OFFSET 7.75947 0.938293 5.60832
                CHANNELS 3 Zrotation Xrotation Yrotation
                JOINT lIndex2
                {
                  OFFSET 2.54057 -0.884171 1.56538
                  CHANNELS 3 Zrotation Xrotation Yrotation
                  End Site
                  {
                    OFFSET 1.62519 -0.234802 1.16502
                  }
                }
              }
              JOINT lMid1
              {
                OFFSET 8.24714 1.18213 3.41376
                CHANNELS 3 Zrotation Xrotation Yrotation
                JOINT lMid2
                {
                  OFFSET 3.10165 -0.590103 1.0647
                  CHANNELS 3 Zrotation Xrotation Yrotation
                  End Site
                  {
                    OFFSET 2.48547 -0.328903 0.83742
                  }
                }
              }
              JOINT lRing1
              {
                OFFSET 8.82822 0.546677 1.51678
                CHANNELS 3 Zrotation Xrotation Yrotation
                JOINT lRing2
                {
                  OFFSET 2.60934 -0.819778 -0.0198488
                  CHANNELS 3 Zrotation Xrotation Yrotation
                  End Site
                  {
                    OFFSET 2.33842 -0.294052 0.168128
                  }
                }
              }
              JOINT lPinky1
              {
                OFFSET 8.27202 -0.0477905 -0.4584
                CHANNELS 3 Zrotation Xrotation Yrotation
                JOINT lPinky2
                {
                  OFFSET 1.82734 -0.647385 -0.700984
                  CHANNELS 3 Zrotation Xrotation Yrotation
                  End Site
                  {
                    OFFSET 1.69225 -0.51767 -0.607171
                  }
                }
              }
            }
          }
        }
      }
    }
  }
  JOINT rButtock
  {
    OFFSET -8.77824 4.35084 1.2192
    CHANNELS 3 Zrotation Xrotation Yrotation
    JOINT rThigh
    {
      OFFSET 0 -1.70687 -2.19456
      CHANNELS 3 Zrotation Xrotation Yrotation
      JOINT rShin
      {
        OFFSET 0 -36.8199 0.73152
        CHANNELS 3 Zrotation Xrotation Yrotation
        JOINT rFoot
        {
          OFFSET 0.73152 -45.1104 -5.12064
          CHANNELS 3 Zrotation Xrotation Yrotation
          End Site
          {
            OFFSET -1.1221 -3.69964 12.103
          }
        }
      }
    }
  }
  JOINT lButtock
  {
    OFFSET 8.77824 4.35084 1.2192
    CHANNELS 3 Zrotation Xrotation Yrotation
    JOINT lThigh
    {
      OFFSET 0 -1.70687 -2.19456
      CHANNELS 3 Zrotation Xrotation Yrotation
      JOINT lShin
      {
        OFFSET 0 -36.8199 0.73152
        CHANNELS 3 Zrotation Xrotation Yrotation
        JOINT lFoot
        {
          OFFSET -0.73152 -45.1104 -5.12064
          CHANNELS 3 Zrotation Xrotation Yrotation
          End Site
          {
            OFFSET 1.1221 -3.69964 12.103
          }
        }
      }
    }
  }
}
MOTION
Frames:	4
Frame Time:	0.00833333
7.62907 85.2343 -194.803 0.0 0.0 0.0 0.705189 -0.00371385 0.0199543 0.194579 -0.00526913 0.033714 2.12352e-14 1.59028e-15 -3.56916e-23 6.33673e-14 1.59028e-14 -4.50372e-17 -0.0 0.0 0.0 -0.0 0.0 0.0 1.07831e-14 -7.76503e-19 1.49089e-16 2.22282e-13 -1.92573e-16 1.19271e-15 3.81498e-12 -1.14142e-12 -2.54444e-14 4.36117e-11 1.1283e-12 3.18055e-14 1.02876e-10 -2.76388e-14 9.54166e-15 1.77653e-10 -5.08889e-14 7.15625e-15 1.0288e-10 -3.02153e-14 3.18055e-15 7.73091 5.47488 0.417314 1.02876e-10 -2.76311e-14 9.54166e-15 2.90554 0.965183 0.102902 1.02878e-10 -2.77305e-14 1.03368e-14 10.2786 0.731801 0.0259123 1.02868e-10 -2.5842e-14 2.54444e-14 2.22167 -0.733487 -0.20892 1.04876e-14 -1.16475e-18 -1.49089e-16 2.20743e-13 -1.86361e-16 -3.97569e-16 3.80374e-12 1.13983e-12 -1.59028e-14 4.36169e-11 -1.14796e-12 3.49861e-14 1.02872e-10 -1.77385e-14 2.22639e-14 1.77662e-10 -3.49861e-14 2.78299e-14 1.02868e-10 -1.82882e-14 2.8625e-14 -7.73091 5.47488 -0.417314 1.02873e-10 -1.80894e-14 1.27222e-14 -2.90554 0.965183 -0.102902 1.02867e-10 -1.80894e-14 1.43125e-14 -10.2786 0.731801 -0.0259123 1.02874e-10 -1.51076e-14 3.18055e-15 -2.22167 -0.733487 0.20892 -2.03217e-16 0.0 -3.88251e-19 1.03768 -4.8484 -0.0878816 -0.00129062 3.22991 0.00171995 -0.507991 1.61857 0.0909494 2.03217e-16 0.0 3.88251e-19 0.0358221 -2.16336 0.0186164 0.00864535 -1.63356 0.0730532 0.498157 3.79688 -0.134158
6.63273 83.6474 -196.944 -3.5891 -3.1423 6.8888 1.83013 -2.18968 -1.12657 1.09561 2.12932 -0.379513 -3.19925 3.19567 -3.6165 6.7864 2.20315 -7.53197 -0.0 0.0 0.0 -0.0 0.0 0.0 3.36811e-14 -8.43102e-15 2.00004e-14 16.455 10.9139 -3.57178 -6.8393 -3.89758 9.68759 0.0376602 -4.30725 -0.599184 -1.46706e-10 1.55647e-10 1.1385e-10 -2.5423e-10 2.70513e-10 1.9476e-10 -1.46703e-10 1.55646e-10 1.13845e-10 7.73091 5.47488 0.417314 -1.46707e-10 1.55647e-10 1.13848e-10 2.90554 0.965183 0.102902 -1.46702e-10 1.55647e-10 1.1385e-10 10.2786 0.731801 0.0259123 -1.46714e-10 1.55648e-10 1.13863e-10 2.22167 -0.733487 -0.20892 3.34404e-14 -8.42982e-15 1.97406e-14 -20.7513 9.7816 5.68263 8.15609 -5.0702 -10.9139 0.000493211 -0.113161 0.0159225 -2.46189e-10 -2.95619e-10 -5.17134e-11 -4.26118e-10 -5.11329e-10 -8.91466e-11 -2.46195e-10 -2.95619e-10 -5.17061e-11 -7.73091 5.47488 -0.417314 -2.46188e-10 -2.95618e-10 -5.17192e-11 -2.90554 0.965183 -0.102902 -2.46195e-10 -2.95618e-10 -5.17188e-11 -10.2786 0.731801 -0.0259123 -2.46187e-10 -2.95617e-10 -5.17298e-11 -2.22167 -0.733487 0.20892 -2.03217e-16 0.0 -3.88251e-19 1.50413 -7.62118 -0.142348 0.00967752 9.5868 0.114521 -0.623972 -3.4067 -1.23613 2.03217e-16 0.0 3.88251e-19 1.5349 -5.26955 -0.92257 -0.0140761 5.77374 -0.0713149 0.688664 -2.00211 2.04693
6.57703 83.5816 -196.934 -3.7299 -3.4467 6.718 2.91589 -4.50817 -2.34258 2.07802 4.38143 -0.817323 -6.14047 6.53229 -7.47271 14.5936 4.3559 -15.513 -0.0 0.0 0.0 -0.0 0.0 0.0 5.76982e-14 -1.94331e-14 4.46209e-14 35.4555 22.3876 -7.85445 -12.6812 -7.67165 20.1066 -0.0215291 -8.85294 -1.24311 -4.20478e-10 3.24842e-10 2.49831e-10 -7.2811e-10 5.64709e-10 4.27604e-10 -4.20475e-10 3.24843e-10 2.49827e-10 7.73091 5.47488 0.417314 -4.2048e-10 3.24843e-10 2.49827e-10 2.90554 0.965183 0.102902 -4.20472e-10 3.24842e-10 2.49831e-10 10.2786 0.731801 0.0259123 -4.20485e-10 3.24843e-10 2.49842e-10 2.22167 -0.733487 -0.20892 5.75137e-14 -1.94301e-14 4.44004e-14 -44.9037 19.8667 12.2785 14.7123 -9.82179 -22.7216 0.0014254 -0.174496 0.0245746 -6.13649e-10 -6.13996e-10 -9.76269e-11 -1.06182e-09 -1.06206e-09 -1.68131e-10 -6.13658e-10 -6.13995e-10 -9.76186e-11 -7.73091 5.47488 -0.417314 -6.13649e-10 -6.13994e-10 -9.76287e-11 -2.90554 0.965183 -0.102902 -6.13657e-10 -6.13994e-10 -9.76295e-11 -10.2786 0.731801 -0.0259123 -6.13649e-10 -6.13995e-10 -9.76405e-11 -2.22167 -0.733487 0.20892 -2.03217e-16 0.0 -3.88251e-19 1.99061 -10.5507 -0.198431 -0.00698792 16.3041 0.240139 -1.00329 -8.71401 -2.67026 2.03217e-16 0.0 3.88251e-19 3.00573 -8.55019 -1.93298 0.00330463 13.6039 -0.22953 1.3735 -8.11341 4.39344
6.57716 83.5864 -197.049 -3.6941 -3.576 6.7889 3.81627 -6.55116 -3.43962 2.99052 6.3972 -1.21273 -8.3815 9.43335 -10.9829 22.0552 6.15384 -22.7173 -0.0 0.0 0.0 -0.0 0.0 0.0 7.94773e-14 -2.52915e-14 5.9703e-14 54.0464 32.1851 -12.4599 -16.6992 -10.3571 29.5222 -0.163206 -12.916 -1.83902 -6.45871e-10 4.66995e-10 3.41531e-10 -1.118e-09 8.11641e-10 5.84267e-10 -6.45868e-10 4.66999e-10 3.41527e-10 7.73091 5.47488 0.417314 -6.45873e-10 4.66996e-10 3.41525e-10 2.90554 0.965183 0.102902 -6.45863e-10 4.66996e-10 3.4153e-10 10.2786 0.731801 0.0259123 -6.45878e-10 4.66996e-10 3.41539e-10 2.22167 -0.733487 -0.20892 7.9346e-14 -2.52871e-14 5.95201e-14 -68.6303 28.1134 19.128 18.9025 -13.0002 -33.5817 0.00166832 -0.339483 0.0477683 -9.4431e-10 -8.86821e-10 -1.55185e-10 -1.63368e-09 -1.53392e-09 -2.67495e-10 -9.4432e-10 -8.8682e-10 -1.55175e-10 -7.73091 5.47488 -0.417314 -9.4431e-10 -8.86819e-10 -1.55183e-10 -2.90554 0.965183 -0.102902 -9.44318e-10 -8.86818e-10 -1.55185e-10 -10.2786 0.731801 -0.0259123 -9.4431e-10 -8.86821e-10 -1.55196e-10 -2.22167 -0.733487 0.20892 -2.03217e-16 0.0 -3.88251e-19 2.42075 -13.1667 -0.254838 -0.048895 22.3002 0.36244 -1.56937 -13.4281 -3.99299 2.03217e-16 0.0 3.88251e-19 4.22144 -11.4701 -2.85019 0.0579428 20.5879 -0.383392 2.41916 -13.5174 6.58804
